Coordinates
version=1
nRows=29
nColumns=24
inDegrees=yes

Units are S.I. units (second, meters, Newtons, ...)
Angles are in degrees.

endheader
time	pelvis_tilt	pelvis_list	pelvis_rotation	pelvis_tx	pelvis_ty	pelvis_tz	hip_flexion_r	hip_adduction_r	hip_rotation_r	knee_angle_r	ankle_angle_r	subtalar_angle_r	mtp_angle_r	hip_flexion_l	hip_adduction_l	hip_rotation_l	knee_angle_l	ankle_angle_l	subtalar_angle_l	mtp_angle_l	lumbar_extension	lumbar_bending	lumbar_rotation
      0.96883333	     -0.62012931	     -2.27555791	      1.73268938	     -0.30005116	      0.99361991	      0.30183340	      7.79438535	      7.78134952	     -0.76106269	    -14.79201516	      9.17896349	     -9.82264108	     -0.45389933	     21.82680384	     -2.34013479	      0.14088486	    -74.41302450	     -7.54506158	    -12.47407464	      3.79997319	      2.99641479	      5.09486604	      3.72856968
      0.97300000	     -0.61977694	     -2.21948911	      1.53597900	     -0.29533251	      0.99391926	      0.30221535	      7.33008883	      7.74735404	     -0.65197371	    -14.49692657	      9.25226122	     -9.61383868	     -0.44057839	     22.45996773	     -2.32732841	     -0.00290613	    -74.31270530	     -6.99674574	    -12.69559184	      3.73888821	      2.93675117	      5.03798292	      3.82100337
      0.97716667	     -0.55780074	     -2.14221524	      1.34058808	     -0.29061232	      0.99428967	      0.30257411	      6.80352830	      7.68038189	     -0.59239505	    -14.20803948	      9.32619496	     -9.30844833	     -0.42022086	     23.00431526	     -2.29021662	     -0.14401221	    -74.15566958	     -6.41221582	    -12.83656207	      3.65234595	      2.79526801	      4.96299108	      4.05072681
      0.98133333	     -0.54255826	     -2.02906921	      1.17142559	     -0.28589049	      0.99457900	      0.30282710	      6.35736880	      7.54915394	     -0.66146544	    -13.98079775	      9.46524201	     -8.81450309	     -0.35042387	     23.58484047	     -2.18094040	     -0.24668589	    -73.93974601	     -5.85946459	    -12.96747255	      3.34897713	      2.71308829	      4.85834104	      4.42298527
      0.98550000	     -0.50755498	     -1.96023725	      0.97822665	     -0.28117827	      0.99486023	      0.30317425	      5.86022150	      7.48488191	     -0.59250700	    -13.68489636	      9.54269938	     -8.50178178	     -0.31179901	     24.13757067	     -2.15263266	     -0.37082830	    -73.70029834	     -5.28316495	    -12.97988247	      3.22782047	      2.60832160	      4.79353823	      4.58442958
      0.98966667	     -0.48920617	     -1.88790045	      0.78677888	     -0.27648397	      0.99507875	      0.30348673	      5.40161317	      7.40616813	     -0.56904879	    -13.42794745	      9.63375729	     -8.14357752	     -0.26701293	     24.69819338	     -2.11291406	     -0.48654492	    -73.42169411	     -4.70165914	    -12.99115836	      3.10874074	      2.51854044	      4.72477956	      4.80984969
      0.99383333	     -0.46105895	     -1.81446760	      0.59686127	     -0.27179213	      0.99528843	      0.30378741	      4.93599401	      7.32238540	     -0.55638600	    -13.17530123	      9.72657698	     -7.77709424	     -0.21697467	     25.23310960	     -2.07168689	     -0.59798281	    -73.09656883	     -4.12466738	    -12.96838071	      2.99546455	      2.41850676	      4.65492424	      5.02077349
      0.99800000	     -0.48020615	     -1.74687900	      0.38760135	     -0.26713324	      0.99538930	      0.30411571	      4.53714046	      7.24653486	     -0.50225777	    -12.95142279	      9.80174239	     -7.49062358	     -0.18311062	     25.81145483	     -2.04690853	     -0.72651881	    -72.74098412	     -3.55183182	    -12.96845403	      2.93598586	      2.36474136	      4.57985233	      5.15738361
      1.00216667	     -0.44767312	     -1.68320262	      0.21523858	     -0.26243638	      0.99555010	      0.30437207	      4.06661324	      7.16442002	     -0.51815734	    -12.69181359	      9.90730957	     -7.06710099	     -0.12317893	     26.31756623	     -2.00433182	     -0.79991515	    -72.33541016	     -2.99046691	    -12.80726105	      2.83448156	      2.26121796	      4.53521018	      5.42011342
      1.00633333	     -0.44640172	     -1.58599759	      0.01225246	     -0.25776190	      0.99563492	      0.30461817	      3.67341490	      7.03299071	     -0.57845732	    -12.51860508	     10.03203649	     -6.50748566	      0.06051618	     26.83617230	     -1.93245660	     -0.91682213	    -71.87696768	     -2.47471064	    -12.76495034	      2.51374056	      2.18309646	      4.43447926	      5.67367403
      1.01050000	     -0.43181920	     -1.54004452	     -0.16874217	     -0.25308276	      0.99571177	      0.30489525	      3.22000949	      6.97561082	     -0.51859503	    -12.24941956	     10.09921675	     -6.26324015	      0.12179314	     27.33821354	     -1.91929660	     -0.99271629	    -71.40059976	     -1.91615055	    -12.55890038	      2.43417888	      2.09590288	      4.39415394	      5.80686450
      1.01466667	     -0.46123884	     -1.47733518	     -0.37950279	     -0.24844088	      0.99568953	      0.30519830	      2.83869642	      6.90013252	     -0.41880303	    -12.02772672	     10.16585660	     -6.01623009	      0.15730513	     27.87238536	     -1.89791909	     -1.09961314	    -70.88109940	     -1.40753095	    -12.43871705	      2.39882942	      2.03937227	      4.32000101	      5.91986681
      1.01883333	     -0.43507399	     -1.42680225	     -0.57365606	     -0.24374309	      0.99572614	      0.30546136	      2.38852364	      6.82846133	     -0.38164341	    -11.78999869	     10.25227522	     -5.68941937	      0.20815227	     28.32376946	     -1.88681275	     -1.18792870	    -70.31509256	     -0.89857358	    -12.18105600	      2.34831032	      1.95460811	      4.29351298	      6.12463250
      1.02300000	     -0.45049811	     -1.38563223	     -0.73966864	     -0.23907155	      0.99564707	      0.30567935	      1.99429348	      6.76376214	     -0.38227682	    -11.56806750	     10.35627221	     -5.31776030	      0.29133940	     28.82270403	     -1.86571087	     -1.23315095	    -69.72884146	     -0.44572216	    -11.94493637	      2.25881887	      1.89370174	      4.25284611	      6.36877646
      1.02716667	     -0.46239586	     -1.31828021	     -0.95252840	     -0.23440329	      0.99558816	      0.30594872	      1.60192085	      6.67455744	     -0.28489899	    -11.35919251	     10.42985876	     -5.05886863	      0.34016520	     29.28213923	     -1.84114090	     -1.33756299	    -69.07584053	     -0.02263746	    -11.76290300	      2.21437130	      1.83548796	      4.18899348	      6.48534395
      1.03133333	     -0.48408801	     -1.27183943	     -1.12906350	     -0.22972555	      0.99544424	      0.30615200	      1.23275937	      6.59741137	     -0.29475904	    -11.17233490	     10.54705088	     -4.62336073	      0.57124032	     29.75158323	     -1.81785841	     -1.39137207	    -68.40583788	      0.35602985	    -11.55011609	      1.96001851	      1.78576872	      4.14464748	      6.76560216
      1.03550000	     -0.49896345	     -1.23008524	     -1.32035346	     -0.22504872	      0.99531093	      0.30639642	      0.83725424	      6.53842960	     -0.17263458	    -10.95061547	     10.62040505	     -4.45728050	      0.60949250	     30.19095372	     -1.81296420	     -1.45977771	    -67.69196024	      0.75143975	    -11.30902046	      1.93261234	      1.73004670	      4.10525125	      6.83173886
      1.03966667	     -0.50415904	     -1.18812623	     -1.49744106	     -0.22035879	      0.99515288	      0.30662457	      0.43262638	      6.47608878	     -0.07833518	    -10.72947327	     10.70701956	     -4.25564071	      0.65273511	     30.60497213	     -1.80425037	     -1.51726683	    -66.94104084	      1.10569306	    -11.04421006	      1.90145011	      1.66689399	      4.06749918	      6.97908869
      1.04383333	     -0.52028391	     -1.16344530	     -1.65684287	     -0.21566335	      0.99493364	      0.30682068	      0.04129260	      6.43045636	     -0.00846949	    -10.51077811	     10.80813665	     -4.03621327	      0.71336942	     31.02202278	     -1.80419360	     -1.54921101	    -66.16600720	      1.43127773	    -10.78005589	      1.85369626	      1.61676933	      4.04414422	      7.18077668
      1.04800000	     -0.56014733	     -1.12820718	     -1.83951032	     -0.21098730	      0.99465792	      0.30703077	     -0.31001516	      6.37480566	      0.12342255	    -10.32191892	     10.90174526	     -3.86686486	      0.74875888	     31.44242877	     -1.80277007	     -1.60262729	    -65.34607650	      1.71715398	    -10.55963786	      1.83100205	      1.58817250	      4.01117286	      7.28546162
      1.05216667	     -0.59078177	     -1.08663331	     -2.00631585	     -0.20628699	      0.99437990	      0.30721980	     -0.67289802	      6.31049436	      0.23196010	    -10.12963921	     11.00876476	     -3.70490591	      0.78395913	     31.83163252	     -1.78763247	     -1.64301085	    -64.48218199	      1.98897335	    -10.30885245	      1.80991938	      1.55637344	      3.97155572	      7.42996651
      1.05633333	     -0.62158199	     -1.06033895	     -2.16041971	     -0.20158603	      0.99405275	      0.30738812	     -1.03574139	      6.26249315	      0.34173358	     -9.93707930	     11.12392671	     -3.55902055	      0.81549635	     32.20986492	     -1.78405416	     -1.66878963	    -63.59358743	      2.24022074	    -10.06682363	      1.79277480	      1.52454874	      3.94774346	      7.56644555
      1.06050000	     -0.65396693	     -1.03047209	     -2.31127477	     -0.19686943	      0.99371213	      0.30754565	     -1.39402491	      6.20985703	      0.45616073	     -9.75147305	     11.24340295	     -3.43704001	      0.84500419	     32.56648139	     -1.77588454	     -1.69434507	    -62.66049300	      2.47195812	     -9.82505992	      1.77740310	      1.49780676	      3.91975925	      7.70839065
      1.06466667	     -0.68025254	     -1.00407894	     -2.44898340	     -0.19213547	      0.99334963	      0.30769650	     -1.76157763	      6.16208651	      0.57072508	     -9.56250150	     11.36864776	     -3.33564853	      0.87082306	     32.89871129	     -1.76690037	     -1.70896789	    -61.69387807	      2.68474357	     -9.59548038	      1.76545895	      1.46433317	      3.89267393	      7.83725677
      1.06883333	     -0.71858599	     -0.98048269	     -2.58202482	     -0.18740535	      0.99292944	      0.30781428	     -2.10917893	      6.11460678	      0.68904659	     -9.38766307	     11.50644043	     -3.25615253	      0.89337107	     33.22749043	     -1.75675190	     -1.71754687	    -60.69433269	      2.88751282	     -9.36706692	      1.75675865	      1.44629740	      3.87114955	      7.95864820
      1.07300000	     -0.75375399	     -0.96282707	     -2.70552171	     -0.18265267	      0.99249175	      0.30793204	     -2.46181732	      6.07527694	      0.81138596	     -9.21252777	     11.64867783	     -3.19851754	      0.91405086	     33.53078222	     -1.75036871	     -1.71649855	    -59.65908641	      3.07984103	     -9.14218271	      1.74983525	      1.43006199	      3.85367651	      8.08295941
      1.07716667	     -0.81908177	     -0.95017256	     -2.79874321	     -0.17788945	      0.99198574	      0.30799008	     -2.78607089	      6.04227822	      0.91182734	     -9.02736914	     11.79470120	     -3.14000102	      0.92426671	     33.85304273	     -1.72554398	     -1.67753774	    -58.59039584	      3.23050319	     -8.99201548	      1.74863288	      1.45430746	      3.84724301	      8.14464531
      1.08133333	     -0.79687517	     -0.93100614	     -2.91609757	     -0.17310648	      0.99158598	      0.30810413	     -3.20077291	      5.99827889	      1.05036800	     -8.85953190	     11.95593923	     -3.15571500	      0.94209327	     34.04712216	     -1.72199546	     -1.69039334	    -57.47844892	      3.43284520	     -8.73232954	      1.74460797	      1.35936470	      3.82777582	      8.33399815
      1.08550000	     -0.87483813	     -0.91802392	     -3.00282757	     -0.16831634	      0.99099734	      0.30815105	     -3.50170952	      5.96507537	      1.15884683	     -8.69890790	     12.10541974	     -3.11428371	      0.94887492	     34.34190513	     -1.69890179	     -1.65592446	    -56.34318062	      3.57415861	     -8.59990579	      1.74510193	      1.40340428	      3.81549967	      8.37179716
